<svg width="56" height="78" viewBox="0 0 56 78" fill="none" xmlns="http://www.w3.org/2000/svg">
<path fill-rule="evenodd" clip-rule="evenodd" d="M55.9999 27.4061C55.9999 12.2709 43.4652 0 27.9999 0C12.5346 0 8.92168e-06 12.2709 8.92168e-06 27.4061C-0.00932439 33.9549 0.9831 38.4914 4.78487 44.4413C8.58664 50.3911 27.9999 78 27.9999 78C27.9999 78 47.4132 50.3911 51.215 44.4413C55.0168 38.4914 56.0092 33.9549 55.9999 27.4061ZM27.9999 36C32.4182 36 35.9999 32.4183 35.9999 28C35.9999 23.5817 32.4182 20 27.9999 20C23.5817 20 19.9999 23.5817 19.9999 28C19.9999 32.4183 23.5817 36 27.9999 36Z" fill="#03B6FC"/>
</svg>
